# xmcd
#
# Track frame offsets:
#	150
#	15408
#	29766
#	45974
#	58262
#	73212
#	93675
#
# Disc length: 1473 seconds
#
# Revision: 1
# Processed by: cddbd v1.5.2PL0 Copyright (c) Steve Scherf et al.
# Submitted via: audiograbber 1.83.01
#
DISCID=5e05bf07
DTITLE=STOP and BUSK - 2015
DYEAR=1900
DGENRE=
TTITLE0=Dirty old town
TTITLE1=Jedna láska
TTITLE2=Dása Nováková
TTITLE3=Cervi
TTITLE4=Divka ze severu
TTITLE5=Rolling
TTITLE6=Blue stripes
EXTD=
EXTT0=
EXTT1=
EXTT2=
EXTT3=
EXTT4=
EXTT5=
EXTT6=
PLAYORDER=
